<svg width="630" height="475" viewBox="0 0 630 475" fill="none" xmlns="http://www.w3.org/2000/svg">
<g opacity="0.5">
<path fill-rule="evenodd" clip-rule="evenodd" d="M658.215 446.072C658.215 450.265 655.976 454.142 652.341 456.242C644.068 461.022 629.169 469.621 621.782 473.887C620.871 474.409 619.755 474.409 618.845 473.887C617.934 473.366 617.376 472.389 617.376 471.347C617.376 462.88 617.376 445.889 617.376 436.416C617.376 432.216 619.616 428.339 623.25 426.239C631.523 421.466 646.419 412.86 653.809 408.594C654.718 408.073 655.838 408.073 656.746 408.594C657.655 409.123 658.215 410.092 658.215 411.142L658.215 446.072Z" fill="#C8D8EC"/>
<path fill-rule="evenodd" clip-rule="evenodd" d="M707.833 417.438C707.833 421.638 705.593 425.515 701.959 427.615C693.694 432.381 678.823 440.972 671.44 445.231C670.532 445.76 669.412 445.76 668.503 445.231C667.594 444.71 667.034 443.74 667.034 442.69C667.034 434.224 667.034 417.233 667.034 407.76C667.034 403.56 669.274 399.683 672.909 397.583C681.173 392.817 696.044 384.226 703.427 379.967C704.335 379.446 705.455 379.446 706.364 379.967C707.273 380.488 707.833 381.458 707.833 382.508C707.833 390.974 707.833 407.958 707.833 417.438Z" fill="#C8D8EC"/>
<path fill-rule="evenodd" clip-rule="evenodd" d="M658.215 389.119C658.215 393.311 655.976 397.188 652.341 399.288C644.068 404.069 629.169 412.667 621.782 416.934C620.871 417.455 619.755 417.455 618.845 416.934C617.934 416.405 617.376 415.435 617.376 414.385C617.376 405.86 617.376 388.678 617.376 379.132C617.376 374.932 619.616 371.055 623.25 368.955C631.524 364.182 646.42 355.583 653.81 351.317C654.718 350.796 655.838 350.796 656.747 351.317C657.655 351.846 658.215 352.815 658.215 353.865C658.215 362.39 658.215 379.573 658.215 389.119Z" fill="#C8D8EC"/>
<path fill-rule="evenodd" clip-rule="evenodd" d="M757.451 388.788C757.451 392.988 755.211 396.865 751.576 398.965C743.309 403.738 728.427 412.33 721.042 416.589C720.133 417.117 719.013 417.117 718.104 416.589C717.195 416.067 716.636 415.098 716.636 414.048C716.636 405.581 716.636 388.597 716.636 379.118C716.636 374.925 718.875 371.048 722.51 368.948C730.778 364.175 745.659 355.584 753.045 351.317C753.953 350.796 755.073 350.796 755.982 351.317C756.89 351.846 757.451 352.815 757.451 353.865C757.451 362.332 757.451 379.316 757.451 388.788Z" fill="#C8D8EC"/>
<path fill-rule="evenodd" clip-rule="evenodd" d="M707.833 360.46C707.833 364.66 705.593 368.537 701.958 370.637C693.694 375.41 678.823 383.994 671.44 388.253C670.532 388.781 669.412 388.781 668.503 388.253C667.594 387.731 667.034 386.762 667.034 385.712C667.034 377.187 667.034 360.004 667.034 350.459C667.034 346.258 669.274 342.381 672.91 340.281C681.174 335.516 696.045 326.932 703.427 322.673C704.336 322.144 705.455 322.144 706.364 322.673C707.273 323.194 707.833 324.164 707.833 325.214C707.833 333.739 707.833 350.914 707.833 360.46Z" fill="#C8D8EC"/>
<path fill-rule="evenodd" clip-rule="evenodd" d="M567.724 289.972C567.724 285.772 569.964 281.895 573.599 279.795C581.872 275.022 596.771 266.423 604.157 262.157C605.068 261.629 606.184 261.629 607.095 262.157C608.005 262.679 608.563 263.648 608.563 264.698C608.563 273.289 608.563 290.677 608.563 300.296C608.563 304.495 606.324 308.374 602.689 310.472C594.416 315.249 579.52 323.849 572.13 328.116C571.221 328.64 570.101 328.64 569.193 328.116C568.284 327.591 567.724 326.621 567.724 325.572C567.724 316.979 567.724 299.591 567.724 289.972Z" fill="#C8D8EC"/>
<path fill-rule="evenodd" clip-rule="evenodd" d="M757.451 331.802C757.451 336.002 755.211 339.879 751.576 341.979C743.308 346.752 728.427 355.344 721.042 359.61C720.133 360.131 719.013 360.131 718.104 359.61C717.195 359.081 716.636 358.112 716.636 357.062C716.636 348.537 716.636 331.362 716.636 321.816C716.636 317.623 718.875 313.742 722.511 311.644C730.779 306.871 745.659 298.282 753.045 294.02C753.954 293.496 755.073 293.496 755.982 294.02C756.89 294.545 757.451 295.514 757.451 296.563C757.451 305.089 757.451 322.264 757.451 331.802Z" fill="#C8D8EC"/>
<path fill-rule="evenodd" clip-rule="evenodd" d="M707.833 303.163C707.833 307.361 705.593 311.24 701.957 313.338C693.693 318.108 678.822 326.691 671.44 330.95C670.531 331.479 669.412 331.479 668.503 330.95C667.594 330.429 667.034 329.46 667.034 328.41C667.034 319.818 667.034 302.424 667.034 292.803C667.034 288.606 669.274 284.727 672.908 282.629C681.172 277.857 696.044 269.272 703.427 265.009C704.335 264.484 705.455 264.484 706.364 265.009C707.273 265.534 707.833 266.504 707.833 267.553C707.833 276.147 707.833 293.541 707.833 303.163Z" fill="#C8D8EC"/>
<path fill-rule="evenodd" clip-rule="evenodd" d="M602.675 426.253C606.31 428.346 608.549 432.23 608.549 436.423C608.549 445.903 608.549 462.887 608.549 471.353C608.549 472.396 607.991 473.372 607.081 473.894C606.17 474.415 605.054 474.415 604.143 473.894C596.756 469.628 581.872 461.036 573.612 456.263C569.977 454.163 567.737 450.286 567.737 446.086C567.737 436.614 567.737 419.63 567.737 411.163C567.737 410.113 568.295 409.144 569.206 408.623C570.109 408.094 571.232 408.094 572.143 408.623C579.523 412.881 594.407 421.48 602.675 426.253Z" fill="#A6B7CA"/>
<path fill-rule="evenodd" clip-rule="evenodd" d="M553.057 397.614C556.692 399.707 558.931 403.591 558.931 407.784C558.931 417.264 558.931 434.248 558.931 442.715C558.931 443.765 558.366 444.734 557.463 445.255C556.552 445.777 555.429 445.777 554.525 445.255C547.138 440.996 532.269 432.405 524.008 427.64C520.366 425.539 518.134 421.662 518.134 417.462C518.134 407.99 518.134 390.998 518.134 382.539C518.134 381.482 518.692 380.52 519.602 379.991C520.506 379.47 521.629 379.47 522.54 379.991C529.919 384.25 544.789 392.841 553.057 397.614Z" fill="#A6B7CA"/>
<path fill-rule="evenodd" clip-rule="evenodd" d="M602.675 368.972C606.309 371.072 608.549 374.949 608.549 379.149C608.549 388.688 608.549 405.863 608.549 414.388C608.549 415.438 607.991 416.407 607.08 416.928C606.17 417.457 605.054 417.457 604.143 416.928C596.756 412.67 581.872 404.078 573.611 399.298C569.977 397.205 567.737 393.328 567.737 389.128C567.737 379.582 567.737 362.415 567.737 353.89C567.737 352.84 568.295 351.87 569.206 351.341C570.109 350.82 571.232 350.82 572.143 351.341C579.523 355.608 594.407 364.199 602.675 368.972Z" fill="#A6B7CA"/>
<path fill-rule="evenodd" clip-rule="evenodd" d="M468.472 353.865C468.472 352.815 469.03 351.846 469.941 351.317C470.844 350.796 471.967 350.796 472.878 351.317C480.265 355.584 495.164 364.189 503.439 368.962C507.074 371.062 509.313 374.939 509.313 379.14C509.313 388.612 509.313 405.596 509.313 414.063C509.313 415.113 508.748 416.082 507.845 416.603C506.934 417.132 505.811 417.132 504.908 416.603C497.513 412.337 482.615 403.738 474.347 398.965C470.712 396.865 468.472 392.988 468.472 388.788C468.472 379.316 468.472 362.332 468.472 353.865Z" fill="#A6B7CA"/>
<path fill-rule="evenodd" clip-rule="evenodd" d="M553.057 340.313C556.692 342.413 558.931 346.29 558.931 350.49L558.931 385.729C558.931 386.779 558.366 387.748 557.463 388.269C556.552 388.798 555.429 388.798 554.525 388.269C547.138 384.011 532.269 375.427 524.008 370.654C520.366 368.554 518.134 364.677 518.134 360.477L518.134 325.238C518.134 324.188 518.692 323.219 519.603 322.697C520.506 322.168 521.629 322.168 522.54 322.697C529.919 326.956 544.789 335.547 553.057 340.313Z" fill="#A6B7CA"/>
<path fill-rule="evenodd" clip-rule="evenodd" d="M623.265 310.486C619.63 308.387 617.39 304.509 617.39 300.31C617.39 290.691 617.39 273.288 617.39 264.69C617.39 263.64 617.948 262.67 618.859 262.149C619.769 261.62 620.886 261.62 621.796 262.149C629.183 266.415 644.067 275.007 652.328 279.779C655.963 281.879 658.202 285.757 658.202 289.949C658.202 299.576 658.202 316.976 658.202 325.571C658.202 326.621 657.644 327.591 656.734 328.116C655.83 328.64 654.707 328.64 653.796 328.116C646.417 323.851 631.533 315.259 623.265 310.486Z" fill="#A6B7CA"/>
<path fill-rule="evenodd" clip-rule="evenodd" d="M503.439 311.664C507.074 313.763 509.313 317.645 509.313 321.837C509.313 331.383 509.313 348.551 509.313 357.076C509.313 358.126 508.748 359.095 507.845 359.624C506.934 360.145 505.811 360.145 504.908 359.624C497.513 355.358 482.615 346.752 474.346 341.979C470.712 339.879 468.472 336.002 468.472 331.802C468.472 322.263 468.472 305.09 468.472 296.565C468.472 295.516 469.03 294.546 469.941 294.022C470.844 293.497 471.967 293.497 472.878 294.022C480.265 298.288 495.164 306.889 503.439 311.664Z" fill="#A6B7CA"/>
<path fill-rule="evenodd" clip-rule="evenodd" d="M553.057 282.652C556.692 284.75 558.931 288.629 558.931 292.827C558.931 302.45 558.931 319.849 558.931 328.448C558.931 329.498 558.366 330.467 557.463 330.989C556.552 331.517 555.429 331.517 554.525 330.989C547.138 326.73 532.269 318.139 524.008 313.37C520.366 311.272 518.134 307.393 518.134 303.195C518.134 293.572 518.134 276.172 518.134 267.576C518.134 266.527 518.692 265.557 519.603 265.032C520.506 264.507 521.629 264.507 522.54 265.032C529.919 269.295 544.789 277.881 553.057 282.652Z" fill="#A6B7CA"/>
<path fill-rule="evenodd" clip-rule="evenodd" d="M550.167 223.654C551.078 224.179 551.636 225.148 551.636 226.198C551.636 227.247 551.078 228.217 550.167 228.741C542.78 233.007 519.628 246.378 519.628 246.378L519.613 206.01C519.613 206.01 542.78 219.387 550.167 223.654Z" fill="#A6B7CA"/>
<path fill-rule="evenodd" clip-rule="evenodd" d="M576.585 340.831C575.676 340.306 575.116 339.336 575.116 338.287C575.116 337.238 575.676 336.268 576.585 335.743C583.973 331.477 598.864 322.882 607.132 318.106C610.767 316.008 615.246 316.008 618.881 318.106C627.149 322.88 642.033 331.472 649.412 335.736C650.323 336.26 650.881 337.23 650.881 338.28C650.881 339.329 650.323 340.299 649.412 340.823C642.025 345.089 627.141 353.685 618.866 358.459C615.231 360.558 610.752 360.558 607.117 358.459C598.849 353.687 583.971 345.095 576.585 340.831Z" fill="#DDE9F8"/>
<path fill-rule="evenodd" clip-rule="evenodd" d="M474.346 284.7L509.313 264.18C509.313 264.18 509.313 291.203 509.313 299.799C509.313 300.849 508.748 301.818 507.845 302.343C506.934 302.867 505.811 302.867 504.908 302.343C497.513 298.076 474.346 284.7 474.346 284.7Z" fill="#DDE9F8"/>
<path fill-rule="evenodd" clip-rule="evenodd" d="M599.785 252.308C600.688 252.832 601.254 253.802 601.254 254.852C601.254 255.901 600.688 256.87 599.785 257.395C592.391 261.661 577.507 270.257 569.239 275.031C565.604 277.13 561.125 277.13 557.49 275.031C549.222 270.26 534.352 261.674 526.973 257.412C526.062 256.887 525.504 255.918 525.504 254.869C525.504 253.818 526.062 252.849 526.973 252.324C534.36 248.059 549.244 239.463 557.512 234.688C561.154 232.589 565.626 232.589 569.26 234.688C577.529 239.459 592.398 248.045 599.785 252.308Z" fill="#DDE9F8"/>
<path fill-rule="evenodd" clip-rule="evenodd" d="M699.021 252.294C699.93 252.819 700.489 253.788 700.489 254.837C700.489 255.887 699.93 256.857 699.021 257.381C691.633 261.646 676.744 270.243 668.474 275.017C664.839 277.116 660.36 277.116 656.726 275.017C648.458 270.244 633.576 261.652 626.193 257.388C625.282 256.863 624.724 255.894 624.724 254.845C624.724 253.795 625.282 252.825 626.193 252.301C633.578 248.035 648.468 239.439 656.737 234.664C660.373 232.565 664.851 232.565 668.486 234.664C676.753 239.438 691.635 248.03 699.021 252.294Z" fill="#DDE9F8"/>
<path fill-rule="evenodd" clip-rule="evenodd" d="M649.403 223.634C650.312 224.159 650.871 225.128 650.871 226.177C650.871 227.227 650.312 228.196 649.403 228.721C642.015 232.987 627.127 241.583 618.859 246.358C615.224 248.456 610.745 248.456 607.11 246.358C598.842 241.586 583.972 233 576.585 228.738C575.682 228.213 575.117 227.243 575.117 226.194C575.117 225.145 575.682 224.175 576.585 223.65C583.98 219.385 598.864 210.789 607.139 206.014C610.774 203.916 615.253 203.916 618.888 206.014C627.149 210.786 642.02 219.372 649.403 223.634Z" fill="#DDE9F8"/>
<path fill-rule="evenodd" clip-rule="evenodd" d="M599.785 195.008C600.688 195.532 601.254 196.502 601.254 197.551C601.254 198.601 600.688 199.571 599.785 200.095C592.391 204.36 577.507 212.957 569.231 217.731C565.596 219.83 561.125 219.83 557.482 217.731C549.214 212.955 534.316 204.355 526.929 200.088C526.018 199.563 525.46 198.593 525.46 197.544C525.46 196.495 526.018 195.525 526.929 195C534.316 190.735 549.207 182.139 557.475 177.364C561.11 175.266 565.589 175.266 569.224 177.364C577.492 182.141 592.391 190.741 599.785 195.008Z" fill="#DDE9F8"/>
<path fill-rule="evenodd" clip-rule="evenodd" d="M699.021 195.008C699.929 195.533 700.489 196.503 700.489 197.552C700.489 198.601 699.929 199.571 699.021 200.096C691.637 204.358 676.766 212.944 668.502 217.715C664.867 219.814 660.389 219.814 656.753 217.715C648.49 212.944 633.618 204.358 626.238 200.096C625.328 199.571 624.77 198.601 624.77 197.552C624.77 196.503 625.328 195.533 626.238 195.008C633.618 190.746 648.49 182.16 656.753 177.388C660.389 175.29 664.867 175.29 668.502 177.388C676.766 182.16 691.637 190.746 699.021 195.008Z" fill="#DDE9F8"/>
<path fill-rule="evenodd" clip-rule="evenodd" d="M649.403 166.358C650.312 166.883 650.871 167.852 650.871 168.902C650.871 169.952 650.312 170.921 649.403 171.446C642.02 175.708 627.149 184.294 618.888 189.065C615.253 191.164 610.774 191.164 607.139 189.065C598.864 184.289 583.965 175.689 576.578 171.422C575.667 170.897 575.109 169.927 575.109 168.878C575.109 167.829 575.667 166.859 576.578 166.334C583.958 162.072 598.834 153.486 607.095 148.715C610.73 146.616 615.209 146.616 618.844 148.715C627.119 153.491 642.013 162.091 649.403 166.358Z" fill="#DDE9F8"/>
<path fill-rule="evenodd" clip-rule="evenodd" d="M418.993 199.584C423.071 201.938 425.583 206.29 425.583 211C425.583 221.791 425.583 241.314 425.583 250.96C425.583 252.138 424.957 253.225 423.936 253.81C422.914 254.403 421.662 254.403 420.64 253.81C412.354 249.024 395.656 239.386 386.389 234.032C382.311 231.676 379.799 227.327 379.799 222.623C379.799 211.824 379.799 192.304 379.799 182.661C379.799 181.483 380.425 180.396 381.446 179.807C382.46 179.219 383.72 179.219 384.741 179.807C393.02 184.591 409.717 194.23 418.993 199.584Z" fill="#30B01E"/>
<path fill-rule="evenodd" clip-rule="evenodd" d="M481.289 222.596C481.289 227.308 478.776 231.657 474.698 234.013C465.417 239.368 448.703 249.014 440.416 253.8C439.395 254.393 438.143 254.393 437.121 253.8C436.1 253.215 435.474 252.128 435.474 250.95C435.474 241.312 435.474 221.805 435.474 211.014C435.474 206.304 437.986 201.953 442.064 199.599C451.344 194.24 468.056 184.592 476.346 179.805C477.366 179.217 478.622 179.217 479.641 179.805C480.661 180.394 481.289 181.482 481.289 182.659C481.289 192.298 481.289 211.805 481.289 222.596Z" fill="#47CF34"/>
<path fill-rule="evenodd" clip-rule="evenodd" d="M471.381 165.542C472.4 166.131 473.029 167.219 473.029 168.396C473.029 169.573 472.4 170.661 471.381 171.249C463.093 176.035 446.388 185.678 437.112 191.035C433.035 193.389 428.01 193.389 423.932 191.035C414.657 185.68 397.959 176.041 389.681 171.258C388.659 170.67 388.033 169.581 388.033 168.404C388.033 167.227 388.659 166.139 389.681 165.551C397.968 160.765 414.665 151.122 423.949 145.766C428.026 143.411 433.051 143.411 437.129 145.766C446.404 151.12 463.095 160.759 471.381 165.542Z" fill="#77F565"/>
<path fill-rule="evenodd" clip-rule="evenodd" d="M240.682 36.499C243.354 38.0708 245 40.9758 245 44.1206C245 51.3253 245 64.3598 245 70.8C245 71.5865 244.59 72.3125 243.92 72.703C243.251 73.099 242.431 73.099 241.761 72.703C236.331 69.5076 225.39 63.0729 219.318 59.498C216.646 57.9251 215 55.0212 215 51.8808C215 44.6706 215 31.6383 215 25.2002C215 24.4137 215.41 23.6878 216.08 23.2945C216.743 22.9018 217.569 22.9018 218.239 23.2945C223.663 26.4888 234.604 32.9241 240.682 36.499Z" fill="#C1CDDA"/>
<path fill-rule="evenodd" clip-rule="evenodd" d="M282 51.8672C282 55.0135 280.355 57.9177 277.684 59.4908C271.607 63.0661 260.663 69.5072 255.236 72.703C254.568 73.099 253.748 73.099 253.079 72.703C252.41 72.3124 252 71.5864 252 70.7998C252 64.3643 252 51.3392 252 44.1336C252 40.9884 253.645 38.0831 256.315 36.5111C262.392 32.933 273.335 26.4909 278.764 23.2946C279.431 22.9018 280.254 22.9018 280.921 23.2945C281.589 23.6878 282 24.4139 282 25.1999C282 31.6365 282 44.6616 282 51.8672Z" fill="#D9E4F2"/>
<path fill-rule="evenodd" clip-rule="evenodd" d="M275.895 14.5673C276.578 14.9656 277 15.7009 277 16.4969C277 17.2929 276.578 18.0288 275.895 18.4265C270.337 21.6629 259.134 28.1836 252.914 31.806C250.179 33.398 246.809 33.398 244.075 31.806C237.854 28.1847 226.657 21.6668 221.105 18.4321C220.42 18.0344 220 17.2985 220 16.5025C220 15.7065 220.42 14.9707 221.105 14.573C226.662 11.3371 237.86 4.81587 244.086 1.19401C246.82 -0.398001 250.19 -0.398005 252.925 1.194C259.145 4.81474 270.338 11.3326 275.895 14.5673Z" fill="#E7F0FA"/>
<path fill-rule="evenodd" clip-rule="evenodd" d="M33.3864 392.739C36.8598 394.688 39 398.29 39 402.189C39 411.123 39 427.286 39 435.272C39 436.247 38.4667 437.148 37.5966 437.632C36.7265 438.123 35.66 438.123 34.7899 437.632C27.7308 433.669 13.5076 425.69 5.61358 421.258C2.14021 419.307 4.94325e-05 415.706 4.18187e-05 411.812C3.04103e-05 402.871 1.14013e-05 386.711 -1.08932e-08 378.728C-6.9994e-09 377.753 0.533283 376.853 1.40338 376.365C2.26646 375.878 3.34005 375.878 4.21014 376.365C11.2621 380.326 25.4854 388.306 33.3864 392.739Z" fill="#30B01E"/>
<path fill-rule="evenodd" clip-rule="evenodd" d="M85 411.795C85 415.697 82.9161 419.298 79.5334 421.249C71.8353 425.682 57.9729 433.669 51.0995 437.632C50.2523 438.123 49.2138 438.123 48.3665 437.632C47.5193 437.147 47 436.247 47 435.272C47 427.292 47 411.141 47 402.206C47 398.306 49.0839 394.703 52.4659 392.754C60.1634 388.317 74.0243 380.329 80.9005 376.365C81.7463 375.878 82.7883 375.878 83.6335 376.365C84.4793 376.853 85 377.753 85 378.728C85 386.709 85 402.86 85 411.795Z" fill="#47CF34"/>
<path fill-rule="evenodd" clip-rule="evenodd" d="M76.6238 364.099C77.475 364.594 78 365.507 78 366.496C78 367.485 77.475 368.399 76.6238 368.894C69.7 372.915 55.7458 381.016 47.9977 385.517C44.5915 387.494 40.394 387.494 36.9879 385.517C29.2397 381.017 15.2918 372.919 8.37623 368.901C7.52296 368.406 7 367.492 7 366.503C7 365.514 7.52296 364.6 8.37622 364.106C15.2986 360.086 29.2466 351.983 37.0016 347.483C40.4078 345.506 44.6052 345.506 48.0114 347.483C55.7595 351.982 69.7021 360.08 76.6238 364.099Z" fill="#77F565"/>
<path fill-rule="evenodd" clip-rule="evenodd" d="M322.344 279.619C324.773 281.021 326.269 283.613 326.27 286.418C326.27 292.846 326.27 304.474 326.27 310.219C326.27 310.921 325.897 311.569 325.288 311.917C324.68 312.27 323.934 312.27 323.326 311.917C318.39 309.067 308.445 303.326 302.925 300.137C300.496 298.734 299 296.143 299 293.341C299 286.909 299 275.283 299 269.539C299 268.838 299.373 268.19 299.981 267.839C300.584 267.489 301.335 267.489 301.944 267.839C306.874 270.689 316.82 276.43 322.344 279.619Z" fill="#287EE7"/>
<path fill-rule="evenodd" clip-rule="evenodd" d="M359.449 293.325C359.449 296.132 357.952 298.722 355.523 300.126C349.995 303.315 340.04 309.06 335.105 311.911C334.496 312.264 333.75 312.264 333.142 311.911C332.534 311.563 332.161 310.915 332.161 310.213C332.161 304.473 332.161 292.854 332.161 286.427C332.161 283.622 333.657 281.03 336.086 279.628C341.613 276.436 351.567 270.69 356.505 267.839C357.112 267.488 357.86 267.488 358.467 267.839C359.075 268.189 359.449 268.837 359.449 269.538C359.449 275.28 359.449 286.898 359.449 293.325Z" fill="#57A3FF"/>
<path fill-rule="evenodd" clip-rule="evenodd" d="M353.548 259.343C354.155 259.694 354.529 260.342 354.529 261.043C354.529 261.744 354.155 262.392 353.548 262.742C348.611 265.593 338.661 271.337 333.137 274.527C330.708 275.929 327.715 275.929 325.287 274.527C319.762 271.338 309.817 265.597 304.886 262.747C304.277 262.397 303.904 261.749 303.904 261.048C303.904 260.347 304.277 259.699 304.886 259.348C309.822 256.498 319.767 250.754 325.296 247.564C327.725 246.162 330.718 246.162 333.147 247.564C338.671 250.753 348.613 256.494 353.548 259.343Z" fill="#9FCDFF"/>
</g>
</svg>
