<svg width="237" height="254" viewBox="0 0 237 254" fill="none" xmlns="http://www.w3.org/2000/svg">
<g opacity="0.5">
<path fill-rule="evenodd" clip-rule="evenodd" d="M157.05 72.3992C162.43 75.4183 165.745 80.9982 165.745 87.0386C165.745 100.877 165.745 125.914 165.745 138.284C165.745 139.795 164.919 141.189 163.571 141.939C162.223 142.7 160.571 142.7 159.224 141.939C148.289 135.802 126.257 123.442 114.029 116.575C108.649 113.554 105.333 107.976 105.333 101.944C105.333 88.0951 105.333 63.0628 105.333 50.6967C105.333 49.1861 106.159 47.7916 107.507 47.0363C108.844 46.282 110.507 46.282 111.855 47.0363C122.779 53.1718 144.811 65.5326 157.05 72.3992Z" fill="#287EE7"/>
<path fill-rule="evenodd" clip-rule="evenodd" d="M237 101.918C237 107.962 233.772 113.54 228.532 116.562C216.608 123.429 195.135 135.801 184.487 141.939C183.175 142.7 181.566 142.7 180.254 141.939C178.942 141.189 178.137 139.795 178.137 138.284C178.137 125.922 178.137 100.904 178.137 87.0637C178.137 81.0225 181.365 75.442 186.604 72.4224C198.528 65.5498 219.998 53.1758 230.65 47.0363C231.96 46.282 233.574 46.282 234.883 47.0363C236.193 47.7918 237 49.1863 237 50.6961C237 63.0595 237 88.0779 237 101.918Z" fill="#57A3FF"/>
<path fill-rule="evenodd" clip-rule="evenodd" d="M224.025 28.0354C225.344 28.8019 226.157 30.217 226.157 31.749C226.157 33.2809 225.344 34.6971 224.025 35.4625C213.3 41.6911 191.685 54.2404 179.683 61.2119C174.407 64.2758 167.905 64.2758 162.629 61.2119C150.627 54.2426 129.021 41.6987 118.309 35.4734C116.987 34.7079 116.177 33.2917 116.177 31.7598C116.177 30.2278 116.987 28.8117 118.309 28.0462C129.032 21.8187 150.637 9.26834 162.65 2.29792C167.926 -0.76597 174.428 -0.765976 179.704 2.29791C191.706 9.26616 213.304 21.8101 224.025 28.0354Z" fill="#9FCDFF"/>
<path fill-rule="evenodd" clip-rule="evenodd" d="M36.5055 204.458C40.3034 206.59 42.6435 210.528 42.6435 214.792C42.6435 224.561 42.6435 242.233 42.6436 250.965C42.6436 252.032 42.0604 253.016 41.1091 253.546C40.1577 254.082 38.9915 254.082 38.0401 253.546C30.3216 249.213 14.7695 240.489 6.13799 235.642C2.34011 233.509 7.45605e-06 229.572 3.65835e-06 225.314C-7.74671e-06 215.538 -3.05643e-05 197.868 -4.19736e-05 189.139C-4.19693e-05 188.073 0.583061 187.088 1.53445 186.555C2.47816 186.023 3.65205 186.023 4.60343 186.555C12.3143 190.886 27.8663 199.611 36.5055 204.458Z" fill="#30B01E"/>
<path fill-rule="evenodd" clip-rule="evenodd" d="M92.9414 225.295C92.9414 229.561 90.6629 233.499 86.9641 235.632C78.5468 240.479 63.3893 249.213 55.8737 253.546C54.9474 254.083 53.8118 254.083 52.8854 253.546C51.9591 253.016 51.3913 252.032 51.3913 250.965C51.3913 242.24 51.3912 224.58 51.3912 214.81C51.3912 210.545 53.6698 206.606 57.3678 204.475C65.7844 199.624 80.9403 190.889 88.4589 186.555C89.3838 186.023 90.5231 186.023 91.4472 186.555C92.3721 187.088 92.9414 188.073 92.9414 189.139C92.9414 197.866 92.9414 215.526 92.9414 225.295Z" fill="#47CF34"/>
<path fill-rule="evenodd" clip-rule="evenodd" d="M83.7823 173.143C84.713 173.684 85.2871 174.683 85.2871 175.764C85.2871 176.845 84.713 177.845 83.7823 178.385C76.2117 182.782 60.9538 191.64 52.4818 196.561C48.7574 198.724 44.1678 198.724 40.4434 196.561C31.9714 191.642 16.7203 182.787 9.15869 178.393C8.22572 177.853 7.65389 176.853 7.65389 175.772C7.65389 174.69 8.22571 173.691 9.15868 173.15C16.7278 168.754 31.9789 159.895 40.4584 154.975C44.1828 152.812 48.7724 152.812 52.4968 154.975C60.9688 159.894 76.2139 168.748 83.7823 173.143Z" fill="#77F565"/>
</g>
</svg>
