<svg width="468" height="454" viewBox="0 0 468 454" fill="none" xmlns="http://www.w3.org/2000/svg">
<path d="M226.303 9.16027C235.585 3.80128 247.021 3.80127 256.303 9.16025L422.454 105.087C431.736 110.446 437.454 120.35 437.454 131.068V322.922C437.454 333.64 431.736 343.544 422.454 348.903L256.303 444.83C247.021 450.189 235.585 450.189 226.303 444.83L60.1527 348.903C50.8707 343.544 45.1527 333.64 45.1527 322.923V131.068C45.1527 120.35 50.8707 110.446 60.1527 105.087L226.303 9.16027Z" fill="#EBF2FC"/>
<path fill-rule="evenodd" clip-rule="evenodd" d="M99.2357 401.981C99.2357 406.174 101.475 410.051 105.11 412.151C113.382 416.931 128.282 425.53 135.669 429.796C136.579 430.317 137.696 430.317 138.606 429.796C139.517 429.275 140.075 428.298 140.075 427.256C140.075 418.789 140.075 401.798 140.075 392.325C140.075 388.125 137.835 384.248 134.2 382.148C125.928 377.375 111.031 368.769 103.641 364.503C102.732 363.982 101.613 363.982 100.704 364.503C99.7952 365.032 99.2357 366.001 99.2357 367.051L99.2357 401.981Z" fill="#C8D8EC"/>
<path fill-rule="evenodd" clip-rule="evenodd" d="M49.6178 373.347C49.6178 377.547 51.8574 381.424 55.4921 383.524C63.7566 388.29 78.6275 396.881 86.0108 401.14C86.9191 401.669 88.0389 401.669 88.9479 401.14C89.8562 400.619 90.4165 399.649 90.4165 398.599C90.4165 390.133 90.4165 373.141 90.4165 363.669C90.4165 359.469 88.177 355.592 84.5415 353.492C76.2778 348.726 61.4069 340.135 54.0236 335.876C53.1153 335.355 51.9955 335.355 51.0864 335.876C50.1781 336.397 49.6178 337.367 49.6178 338.417C49.6178 346.883 49.6178 363.867 49.6178 373.347Z" fill="#C8D8EC"/>
<path fill-rule="evenodd" clip-rule="evenodd" d="M99.2357 345.027C99.2357 349.22 101.475 353.097 105.11 355.197C113.382 359.978 128.282 368.576 135.669 372.842C136.579 373.364 137.696 373.364 138.606 372.842C139.517 372.314 140.075 371.344 140.075 370.294C140.075 361.769 140.075 344.587 140.075 335.041C140.075 330.841 137.835 326.964 134.2 324.864C125.926 320.091 111.031 311.492 103.641 307.226C102.732 306.705 101.613 306.705 100.704 307.226C99.7952 307.755 99.2357 308.724 99.2357 309.774C99.2357 318.299 99.2357 335.482 99.2357 345.027Z" fill="#C8D8EC"/>
<path fill-rule="evenodd" clip-rule="evenodd" d="M5.70576e-06 344.697C3.607e-06 348.897 2.23959 352.774 5.87433 354.874C14.1417 359.647 29.0236 368.238 36.4091 372.497C37.3181 373.026 38.4379 373.026 39.3462 372.497C40.2553 371.976 40.8148 371.007 40.8148 369.957C40.8148 361.49 40.8148 344.506 40.8148 335.027C40.8148 330.834 38.576 326.957 34.9405 324.856C26.6731 320.084 11.792 311.492 4.40577 307.226C3.49745 306.705 2.37766 306.705 1.46861 307.226C0.560288 307.755 2.3681e-05 308.724 2.31563e-05 309.774C1.89258e-05 318.241 1.0439e-05 335.225 5.70576e-06 344.697Z" fill="#C8D8EC"/>
<path fill-rule="evenodd" clip-rule="evenodd" d="M49.6178 316.369C49.6178 320.569 51.8574 324.446 55.4929 326.546C63.7566 331.319 78.6275 339.903 86.0108 344.161C86.9191 344.69 88.0389 344.69 88.9479 344.161C89.8563 343.64 90.4165 342.671 90.4165 341.621C90.4165 333.096 90.4165 315.913 90.4165 306.368C90.4165 302.167 88.1762 298.29 84.5407 296.19C76.2763 291.425 61.4062 282.841 54.0236 278.582C53.1145 278.053 51.9955 278.053 51.0864 278.582C50.1781 279.103 49.6179 280.073 49.6179 281.123C49.6178 289.648 49.6178 306.823 49.6178 316.369Z" fill="#C8D8EC"/>
<path fill-rule="evenodd" clip-rule="evenodd" d="M189.726 245.881C189.726 241.681 187.487 237.804 183.851 235.704C175.578 230.931 160.68 222.332 153.293 218.066C152.383 217.537 151.267 217.537 150.356 218.066C149.446 218.587 148.887 219.557 148.887 220.607C148.887 229.198 148.887 246.586 148.887 256.205C148.887 260.404 151.127 264.282 154.762 266.381C163.034 271.158 177.931 279.758 185.321 284.025C186.23 284.549 187.35 284.549 188.258 284.025C189.167 283.5 189.726 282.53 189.726 281.481C189.726 272.888 189.726 255.5 189.726 245.881Z" fill="#C8D8EC"/>
<path fill-rule="evenodd" clip-rule="evenodd" d="M0 287.711C-2.09876e-06 291.911 2.23957 295.788 5.87504 297.888C14.1424 302.661 29.0236 311.252 36.4091 315.519C37.3181 316.04 38.4379 316.04 39.3462 315.519C40.2553 314.99 40.8148 314.021 40.8148 312.971C40.8148 304.446 40.8148 287.27 40.8148 277.725C40.8148 273.532 38.5753 269.651 34.9398 267.552C26.6717 262.78 11.7913 254.191 4.40577 249.929C3.49671 249.404 2.37765 249.404 1.4686 249.929C0.560283 250.454 1.81327e-05 251.423 1.76084e-05 252.472C1.33484e-05 260.997 4.76625e-06 278.173 0 287.711Z" fill="#C8D8EC"/>
<path fill-rule="evenodd" clip-rule="evenodd" d="M49.6178 259.072C49.6178 263.27 51.8582 267.149 55.4936 269.247C63.7581 274.016 78.6282 282.6 86.0108 286.859C86.9198 287.388 88.0389 287.388 88.9479 286.859C89.8563 286.338 90.4165 285.369 90.4165 284.319C90.4165 275.727 90.4165 258.333 90.4165 248.712C90.4165 244.515 88.177 240.636 84.5422 238.538C76.2785 233.766 61.4069 225.181 54.0236 220.918C53.1153 220.393 51.9955 220.393 51.0864 220.918C50.1781 221.443 49.6179 222.413 49.6179 223.462C49.6178 232.056 49.6178 249.45 49.6178 259.072Z" fill="#C8D8EC"/>
<path fill-rule="evenodd" clip-rule="evenodd" d="M154.776 382.162C151.141 384.254 148.902 388.139 148.902 392.332C148.902 401.811 148.902 418.796 148.902 427.262C148.902 428.305 149.46 429.281 150.37 429.803C151.281 430.324 152.397 430.324 153.307 429.803C160.694 425.536 175.578 416.945 183.839 412.172C187.474 410.072 189.714 406.195 189.714 401.995C189.714 392.523 189.714 375.538 189.714 367.072C189.714 366.022 189.155 365.053 188.245 364.531C187.342 364.003 186.218 364.003 185.308 364.531C177.928 368.79 163.044 377.389 154.776 382.162Z" fill="#A6B7CA"/>
<path fill-rule="evenodd" clip-rule="evenodd" d="M204.394 353.523C200.759 355.616 198.52 359.5 198.52 363.693C198.52 373.173 198.52 390.157 198.52 398.623C198.52 399.673 199.085 400.643 199.988 401.164C200.899 401.685 202.022 401.685 202.925 401.164C210.312 396.905 225.182 388.314 233.443 383.548C237.085 381.448 239.317 377.571 239.317 373.371C239.317 363.899 239.317 346.907 239.317 338.448C239.317 337.391 238.759 336.429 237.848 335.9C236.945 335.379 235.822 335.379 234.911 335.9C227.532 340.159 212.662 348.75 204.394 353.523Z" fill="#A6B7CA"/>
<path fill-rule="evenodd" clip-rule="evenodd" d="M154.776 324.881C151.141 326.981 148.902 330.858 148.902 335.058C148.902 344.596 148.902 361.771 148.902 370.297C148.902 371.347 149.46 372.316 150.37 372.837C151.281 373.366 152.397 373.366 153.308 372.837C160.695 368.578 175.579 359.987 183.839 355.207C187.474 353.114 189.714 349.237 189.714 345.037C189.714 335.491 189.714 318.324 189.714 309.798C189.714 308.748 189.156 307.779 188.245 307.25C187.342 306.729 186.218 306.729 185.308 307.25C177.928 311.517 163.044 320.108 154.776 324.881Z" fill="#A6B7CA"/>
<path fill-rule="evenodd" clip-rule="evenodd" d="M288.979 309.774C288.979 308.724 288.421 307.755 287.51 307.226C286.607 306.705 285.483 306.705 284.573 307.226C277.186 311.492 262.287 320.098 254.012 324.871C250.377 326.971 248.137 330.848 248.137 335.048C248.137 344.521 248.137 361.505 248.137 369.971C248.137 371.021 248.703 371.991 249.606 372.512C250.516 373.041 251.64 373.041 252.543 372.512C259.937 368.246 274.836 359.647 283.104 354.874C286.739 352.774 288.979 348.897 288.979 344.697C288.979 335.225 288.979 318.241 288.979 309.774Z" fill="#A6B7CA"/>
<path fill-rule="evenodd" clip-rule="evenodd" d="M204.394 296.222C200.759 298.322 198.52 302.199 198.52 306.399L198.52 341.638C198.52 342.688 199.085 343.657 199.988 344.178C200.899 344.707 202.022 344.707 202.925 344.178C210.312 339.919 225.182 331.336 233.443 326.563C237.085 324.463 239.317 320.586 239.317 316.385L239.317 281.147C239.317 280.097 238.759 279.127 237.848 278.606C236.945 278.077 235.822 278.077 234.911 278.606C227.532 282.865 212.662 291.456 204.394 296.222Z" fill="#A6B7CA"/>
<path fill-rule="evenodd" clip-rule="evenodd" d="M134.186 266.395C137.821 264.296 140.061 260.418 140.061 256.219C140.061 246.6 140.061 229.197 140.061 220.599C140.061 219.549 139.502 218.579 138.592 218.058C137.681 217.529 136.565 217.529 135.655 218.058C128.268 222.324 113.384 230.915 105.123 235.688C101.488 237.788 99.2487 241.665 99.2487 245.858C99.2487 255.485 99.2487 272.885 99.2487 281.48C99.2487 282.53 99.8067 283.5 100.717 284.025C101.62 284.549 102.744 284.549 103.654 284.025C111.034 279.76 125.918 271.168 134.186 266.395Z" fill="#A6B7CA"/>
<path fill-rule="evenodd" clip-rule="evenodd" d="M254.012 267.573C250.377 269.672 248.137 273.553 248.137 277.746C248.137 287.292 248.137 304.46 248.137 312.985C248.137 314.035 248.703 315.004 249.606 315.533C250.517 316.054 251.64 316.054 252.543 315.533C259.938 311.267 274.836 302.661 283.104 297.888C286.739 295.788 288.979 291.911 288.979 287.711C288.979 278.172 288.979 260.998 288.979 252.474C288.979 251.425 288.421 250.455 287.51 249.931C286.607 249.405 285.484 249.405 284.573 249.931C277.186 254.197 262.287 262.797 254.012 267.573Z" fill="#A6B7CA"/>
<path fill-rule="evenodd" clip-rule="evenodd" d="M204.394 238.561C200.759 240.659 198.52 244.538 198.52 248.736C198.52 258.359 198.52 275.758 198.52 284.357C198.52 285.407 199.085 286.376 199.988 286.898C200.899 287.426 202.022 287.426 202.925 286.898C210.312 282.639 225.182 274.047 233.443 269.279C237.085 267.18 239.317 263.302 239.317 259.104C239.317 249.481 239.317 232.08 239.317 223.485C239.317 222.436 238.759 221.466 237.848 220.941C236.945 220.416 235.822 220.416 234.911 220.941C227.532 225.204 212.662 233.79 204.394 238.561Z" fill="#A6B7CA"/>
<path fill-rule="evenodd" clip-rule="evenodd" d="M207.284 179.563C206.373 180.088 205.815 181.057 205.815 182.106C205.815 183.156 206.373 184.126 207.284 184.65C214.671 188.915 237.823 202.287 237.823 202.287L237.837 161.919C237.837 161.919 214.671 175.296 207.284 179.563Z" fill="#A6B7CA"/>
<path fill-rule="evenodd" clip-rule="evenodd" d="M0 230.429C-2.09766e-06 234.627 2.24033 238.506 5.8758 240.604C14.1439 245.376 29.0243 253.965 36.4098 258.228C37.3181 258.753 38.4379 258.753 39.347 258.228C40.2553 257.704 40.8148 256.734 40.8148 255.684C40.8148 247.09 40.8148 229.693 40.8148 220.071C40.8148 215.874 38.576 211.996 34.9405 209.897C26.6731 205.123 11.792 196.531 4.40576 192.267C3.49745 191.742 2.37765 191.742 1.4686 192.267C0.560283 192.792 1.83224e-05 193.762 1.77981e-05 194.811C1.35029e-05 203.406 4.80882e-06 220.806 0 230.429Z" fill="#57A3FF"/>
<path fill-rule="evenodd" clip-rule="evenodd" d="M8.81221 179.553C7.90389 180.077 7.34363 181.047 7.34363 182.096C7.34363 183.145 7.90389 184.115 8.81221 184.64C16.1955 188.902 31.0671 197.488 39.3308 202.259C42.9656 204.358 47.444 204.358 51.0795 202.259C59.3469 197.486 74.228 188.894 81.6142 184.63C82.5226 184.105 83.0828 183.136 83.0828 182.086C83.0828 181.037 82.5226 180.067 81.6142 179.542C74.2309 175.281 59.3601 166.694 51.0956 161.923C47.4609 159.824 42.9824 159.824 39.347 161.923C31.0796 166.696 16.1984 175.288 8.81221 179.553Z" fill="#9FCDFF"/>
<path fill-rule="evenodd" clip-rule="evenodd" d="M180.866 296.739C181.774 296.214 182.335 295.245 182.335 294.196C182.335 293.147 181.774 292.177 180.866 291.652C173.478 287.386 158.587 278.79 150.319 274.015C146.684 271.917 142.205 271.917 138.57 274.015C130.302 278.789 115.418 287.381 108.038 291.645C107.128 292.169 106.57 293.139 106.57 294.189C106.57 295.238 107.128 296.208 108.038 296.732C115.425 300.998 130.309 309.594 138.585 314.368C142.22 316.467 146.699 316.467 150.333 314.368C158.602 309.595 173.48 301.004 180.866 296.739Z" fill="white"/>
<path fill-rule="evenodd" clip-rule="evenodd" d="M283.104 240.608L248.137 220.089C248.137 220.089 248.137 247.112 248.137 255.708C248.137 256.758 248.703 257.727 249.606 258.252C250.516 258.776 251.64 258.776 252.543 258.252C259.937 253.985 283.104 240.608 283.104 240.608Z" fill="white"/>
<path fill-rule="evenodd" clip-rule="evenodd" d="M157.666 208.217C156.762 208.741 156.197 209.711 156.197 210.76C156.197 211.81 156.762 212.779 157.666 213.304C165.06 217.57 179.944 226.166 188.212 230.94C191.847 233.039 196.326 233.039 199.961 230.94C208.229 226.169 223.098 217.583 230.478 213.321C231.389 212.796 231.947 211.827 231.947 210.777C231.947 209.727 231.389 208.758 230.478 208.233C223.091 203.968 208.207 195.372 199.939 190.597C196.297 188.498 191.825 188.498 188.19 190.597C179.922 195.368 165.053 203.954 157.666 208.217Z" fill="white"/>
<path fill-rule="evenodd" clip-rule="evenodd" d="M58.43 208.202C57.521 208.728 56.9614 209.697 56.9614 210.746C56.9614 211.795 57.521 212.765 58.43 213.29C65.8177 217.555 80.7069 226.152 88.9765 230.926C92.612 233.025 97.0904 233.025 100.725 230.926C108.993 226.153 123.874 217.561 131.258 213.297C132.168 212.772 132.726 211.803 132.726 210.753C132.726 209.704 132.168 208.734 131.258 208.21C123.872 203.944 108.983 195.348 100.713 190.573C97.0779 188.474 92.5995 188.474 88.9648 190.573C80.6974 195.347 65.8155 203.938 58.43 208.202Z" fill="white"/>
<path fill-rule="evenodd" clip-rule="evenodd" d="M108.048 179.542C107.139 180.067 106.579 181.037 106.579 182.086C106.579 183.136 107.139 184.105 108.048 184.63C115.436 188.896 130.324 197.491 138.592 202.267C142.227 204.365 146.706 204.365 150.341 202.267C158.609 197.495 173.478 188.909 180.865 184.646C181.769 184.122 182.334 183.152 182.334 182.103C182.334 181.054 181.769 180.084 180.865 179.559C173.471 175.294 158.587 166.697 150.311 161.923C146.677 159.824 142.198 159.824 138.563 161.923C130.302 166.695 115.43 175.281 108.048 179.542Z" fill="white"/>
<path fill-rule="evenodd" clip-rule="evenodd" d="M157.666 150.917C156.762 151.441 156.197 152.411 156.197 153.46C156.197 154.51 156.762 155.48 157.666 156.004C165.06 160.269 179.944 168.866 188.22 173.64C191.854 175.739 196.326 175.739 199.968 173.64C208.236 168.864 223.135 160.263 230.522 155.996C231.433 155.472 231.991 154.502 231.991 153.453C231.991 152.404 231.433 151.434 230.522 150.909C223.135 146.644 208.244 138.048 199.976 133.273C196.341 131.174 191.862 131.174 188.227 133.273C179.959 138.05 165.06 146.65 157.666 150.917Z" fill="white"/>
<path fill-rule="evenodd" clip-rule="evenodd" d="M58.43 150.917C57.5217 151.442 56.9614 152.412 56.9614 153.461C56.9614 154.51 57.5217 155.48 58.43 156.004C65.8133 160.267 80.6849 168.853 88.9486 173.624C92.5834 175.723 97.0618 175.723 100.697 173.624C108.961 168.853 123.833 160.267 131.212 156.004C132.123 155.48 132.681 154.51 132.681 153.461C132.681 152.412 132.123 151.442 131.212 150.917C123.833 146.655 108.961 138.069 100.697 133.297C97.0618 131.199 92.5834 131.199 88.9486 133.297C80.6849 138.069 65.8133 146.655 58.43 150.917Z" fill="white"/>
<path fill-rule="evenodd" clip-rule="evenodd" d="M108.048 122.267C107.139 122.792 106.579 123.761 106.579 124.811C106.579 125.86 107.139 126.83 108.048 127.355C115.43 131.617 130.302 140.203 138.563 144.974C142.198 147.073 146.677 147.073 150.311 144.974C158.587 140.197 173.486 131.597 180.873 127.33C181.783 126.806 182.341 125.836 182.341 124.787C182.341 123.738 181.783 122.768 180.873 122.243C173.493 117.981 158.616 109.395 150.356 104.624C146.721 102.525 142.242 102.525 138.607 104.624C130.331 109.4 115.438 118 108.048 122.267Z" fill="white"/>
<path fill-rule="evenodd" clip-rule="evenodd" d="M338.458 155.493C334.38 157.847 331.868 162.198 331.868 166.909C331.868 177.7 331.868 197.223 331.868 206.869C331.868 208.047 332.494 209.134 333.515 209.719C334.537 210.312 335.789 210.312 336.81 209.719C345.097 204.933 361.794 195.295 371.062 189.941C375.139 187.585 377.652 183.235 377.652 178.532C377.652 167.732 377.652 148.213 377.652 138.57C377.652 137.392 377.026 136.305 376.004 135.716C374.991 135.127 373.731 135.127 372.709 135.716C364.431 140.5 347.733 150.139 338.458 155.493Z" fill="#30B01E"/>
<path fill-rule="evenodd" clip-rule="evenodd" d="M276.162 178.505C276.162 183.217 278.675 187.566 282.753 189.922C292.034 195.277 308.747 204.923 317.034 209.709C318.056 210.302 319.308 210.302 320.329 209.709C321.351 209.124 321.977 208.037 321.977 206.859C321.977 197.221 321.977 177.714 321.977 166.923C321.977 162.213 319.465 157.862 315.387 155.507C306.107 150.149 289.395 140.501 281.105 135.714C280.085 135.126 278.829 135.126 277.81 135.714C276.79 136.303 276.162 137.391 276.162 138.568C276.162 148.207 276.162 167.714 276.162 178.505Z" fill="#47CF34"/>
<path fill-rule="evenodd" clip-rule="evenodd" d="M286.07 121.451C285.051 122.04 284.422 123.128 284.422 124.305C284.422 125.482 285.051 126.57 286.069 127.158C294.358 131.944 311.063 141.587 320.338 146.944C324.416 149.298 329.441 149.298 333.518 146.944C342.794 141.589 359.491 131.95 367.77 127.167C368.792 126.578 369.418 125.49 369.418 124.313C369.418 123.136 368.792 122.048 367.77 121.46C359.483 116.674 342.786 107.031 333.502 101.675C329.424 99.3203 324.4 99.3203 320.322 101.675C311.047 107.029 294.356 116.668 286.07 121.451Z" fill="#77F565"/>
<path fill-rule="evenodd" clip-rule="evenodd" d="M435.106 235.528C432.678 236.93 431.181 239.522 431.181 242.327C431.181 248.755 431.181 260.383 431.181 266.128C431.181 266.83 431.554 267.478 432.162 267.826C432.771 268.179 433.516 268.179 434.125 267.826C439.061 264.975 449.006 259.235 454.526 256.046C456.954 254.642 458.451 252.052 458.451 249.25C458.451 242.818 458.451 231.192 458.451 225.448C458.451 224.747 458.078 224.099 457.47 223.748C456.866 223.398 456.115 223.398 455.507 223.748C450.576 226.598 440.631 232.339 435.106 235.528Z" fill="#287EE7"/>
<path fill-rule="evenodd" clip-rule="evenodd" d="M398.002 249.234C398.002 252.041 399.498 254.631 401.928 256.035C407.456 259.224 417.41 264.969 422.346 267.82C422.954 268.173 423.7 268.173 424.309 267.82C424.917 267.471 425.29 266.824 425.29 266.122C425.29 260.382 425.29 248.763 425.29 242.336C425.29 239.53 423.794 236.939 421.365 235.537C415.837 232.345 405.884 226.599 400.946 223.747C400.338 223.397 399.59 223.397 398.983 223.747C398.376 224.098 398.002 224.746 398.002 225.447C398.002 231.189 398.002 242.807 398.002 249.234Z" fill="#57A3FF"/>
<path fill-rule="evenodd" clip-rule="evenodd" d="M403.903 215.252C403.296 215.603 402.922 216.251 402.922 216.952C402.922 217.653 403.296 218.301 403.903 218.651C408.84 221.502 418.789 227.245 424.314 230.436C426.743 231.838 429.736 231.838 432.164 230.436C437.689 227.246 447.634 221.505 452.565 218.656C453.174 218.306 453.546 217.658 453.546 216.957C453.546 216.256 453.174 215.607 452.565 215.257C447.629 212.407 437.684 206.663 432.155 203.473C429.726 202.071 426.733 202.071 424.304 203.473C418.78 206.662 408.838 212.403 403.903 215.252Z" fill="#9FCDFF"/>
</svg>
