<svg width="42" height="73" viewBox="0 0 42 73" fill="none" xmlns="http://www.w3.org/2000/svg">
<path d="M13.4042 25.98C13.4033 26.5408 13.8817 26.9961 14.4708 26.9952C15.0599 26.9961 15.5374 26.5416 15.5374 25.98C15.5374 25.4201 15.0591 24.9648 14.4708 24.9648C13.8807 24.9648 13.4033 25.4192 13.4042 25.98Z" fill="white"/>
<path d="M14.5504 29.0271C13.9627 29.0697 13.5227 29.5576 13.5675 30.1169C13.7057 31.8408 14.0084 35.0537 14.482 37.2062C14.6026 37.7552 15.1682 38.1072 15.7449 37.992C16.3238 37.8764 16.6907 37.3369 16.5705 36.7899C16.1048 34.6741 15.803 31.3106 15.6954 29.9626C15.6506 29.4033 15.1378 28.9847 14.5504 29.0271Z" fill="white"/>
<path d="M15.5376 19.8871C15.5368 22.6932 17.9219 24.9652 20.8713 24.9644C23.8205 24.9652 26.2066 22.6946 26.2054 19.8871C26.2054 17.0812 23.8202 14.8103 20.8718 14.8103C17.924 14.8103 15.5376 17.0806 15.5376 19.8871ZM24.0719 19.8873C24.0716 19.8876 24.0716 19.8876 24.0716 19.8876C24.0722 21.5714 22.6425 22.9339 20.8713 22.9333C19.1023 22.9339 17.6708 21.5725 17.6717 19.8873C17.6717 18.2036 19.1026 16.8416 20.8718 16.8414C22.6401 16.8414 24.0716 18.2033 24.0719 19.8873Z" fill="white"/>
<path d="M21.9391 71.8268L21.9389 62.8491C21.9391 62.2883 21.4614 61.8335 20.8719 61.8335C20.2829 61.8338 19.8054 62.2883 19.8051 62.8491V71.8266C19.8051 72.3876 20.2829 72.8424 20.8722 72.8424C21.4614 72.8421 21.9389 72.3876 21.9391 71.8268Z" fill="white"/>
<path d="M29.4833 64.6456L29.483 55.6679C29.483 55.1074 29.0052 54.6526 28.4161 54.6523C27.8269 54.6526 27.3494 55.1071 27.3489 55.6681V64.6456C27.3492 65.2064 27.8269 65.6612 28.4161 65.6614C29.0055 65.6609 29.483 65.2064 29.4833 64.6456Z" fill="white"/>
<path d="M13.3282 65.6614C13.9174 65.6611 14.3948 65.2066 14.3951 64.6458V55.6683C14.3951 55.1073 13.9174 54.6525 13.3282 54.6528C12.7387 54.6528 12.2614 55.1073 12.2614 55.6683V64.6458C12.261 65.2066 12.7387 65.6614 13.3282 65.6614Z" fill="white"/>
<path d="M21.6663 0.489685C21.4642 0.274238 21.1747 0.151366 20.8712 0.151367C20.5676 0.151367 20.2773 0.273958 20.076 0.489685C16.4557 4.34303 9.13534 14.8084 9.13534 25.9813C9.13534 28.3804 9.28411 30.7921 9.57449 33.1612C3.94383 36.7596 0.599888 42.7074 0.600098 49.1839C0.600098 51.0034 0.86653 52.8061 1.39204 54.5429C1.68831 55.5211 3.148 55.5163 3.44248 54.5432C4.79345 50.0872 7.96761 46.3562 12.2341 44.1563C12.6048 45.0624 13.0001 45.8891 13.4149 46.6213C13.88 47.4455 14.7415 47.999 15.7294 48.1353C15.6879 48.4975 15.6664 48.8647 15.6664 49.235C15.6664 52.9318 20.0041 57.8125 20.1889 58.0186C20.5939 58.4703 21.3163 58.4953 21.7548 58.0778C21.7745 58.059 21.7937 58.0391 21.8119 58.0189C21.9964 57.813 26.3357 52.9321 26.3359 49.235C26.3359 48.8495 26.3127 48.4672 26.2678 48.0907C27.1626 47.8977 27.9092 47.3633 28.3274 46.623C28.7426 45.89 29.1378 45.0627 29.5089 44.1563C33.7751 46.3559 36.9495 50.0872 38.3005 54.5432C38.5994 55.5295 40.0588 55.5059 40.3506 54.5426C40.8764 52.8061 41.1428 51.0034 41.1428 49.1839C41.1428 42.7076 37.7986 36.7596 32.1682 33.1615C32.4585 30.7919 32.6073 28.3802 32.6073 25.9811C32.6073 20.481 30.9201 14.708 27.5929 8.82169C25.9775 5.87024 23.2982 2.22644 21.6663 0.489685ZM2.79343 50.5956C2.75371 50.1274 2.73365 49.6561 2.73396 49.1839C2.73365 43.7296 5.38619 38.6947 9.8986 35.4369C10.3007 37.8876 10.8518 40.193 11.5208 42.2167C7.73921 44.0887 4.69858 47.0272 2.79343 50.5956ZM24.2021 49.235C24.2021 51.2099 22.3147 54.0478 20.9999 55.7245C19.6858 54.0494 17.8001 51.2144 17.8001 49.235C17.8001 48.8742 17.8256 48.518 17.8742 48.1687H24.1276C24.1765 48.5177 24.2018 48.8739 24.2021 49.235ZM26.4485 45.6599C26.2843 45.9503 25.9266 46.1377 25.5369 46.1377C23.3819 46.1377 17.2369 46.1377 16.2061 46.1377C15.8161 46.1379 15.4584 45.95 15.2935 45.6585C14.8999 44.9639 14.5231 44.1706 14.1695 43.292C16.2962 42.4846 18.5455 42.0756 20.8709 42.075C23.1968 42.0756 25.4462 42.4846 27.5729 43.292C27.2192 44.1706 26.8426 44.9645 26.4485 45.6599ZM39.009 49.1839C39.009 49.6563 38.989 50.1271 38.9489 50.5956C37.0441 47.0269 34.0035 44.0884 30.2218 42.2164C30.8905 40.193 31.4417 37.8876 31.8438 35.4369C36.3568 38.6947 39.0087 43.7296 39.009 49.1839ZM30.4736 25.9811C30.4732 30.9361 29.7962 36.6143 28.2646 41.3689C25.916 40.4906 23.4344 40.0446 20.8709 40.044C18.3077 40.0448 15.8264 40.4906 13.4781 41.3692C11.9464 36.6145 11.2691 30.9361 11.2691 25.9813C11.2691 20.9818 12.7722 15.7112 15.738 10.3062H26.0043C28.9705 15.7109 30.4732 20.9818 30.4736 25.9811ZM24.8235 8.27494L16.919 8.27493C18.476 5.74428 19.9864 3.8162 20.8712 2.75748C21.7559 3.8162 23.2667 5.744 24.8235 8.27494Z" fill="white"/>
</svg>
