<svg width="84" height="83" viewBox="0 0 84 83" fill="none" xmlns="http://www.w3.org/2000/svg">
<g clip-path="url(#clip0_51_739)">
<path d="M62.6561 10.495C62.2444 9.96697 61.472 9.86526 60.9311 10.2674C60.3904 10.6694 60.2861 11.4234 60.6981 11.9513C63.8336 15.969 65.4907 20.7699 65.4907 25.8347C65.4907 31.1616 63.5778 36.3512 60.1041 40.4474C59.5438 41.1081 58.9498 41.8135 58.3886 42.5342L54.8694 47.0528C52.9349 49.5365 51.5282 52.306 50.6798 55.298H47.7545V54.2054C47.7545 53.1091 47.2014 52.0845 46.2752 51.4649C46.0188 51.2934 45.8657 51.0098 45.8657 50.7064V48.3519H47.529C49.8036 48.3519 51.6542 46.5453 51.6542 44.3249C51.6542 42.1046 49.8038 40.2981 47.529 40.2981C45.2544 40.2981 43.4038 42.1046 43.4038 44.3249V45.9489H40.5954V44.3249C40.5954 42.1044 38.745 40.2981 36.4702 40.2981C34.1956 40.2981 32.345 42.1047 32.345 44.3251C32.345 46.5456 34.1956 48.3519 36.4702 48.3519H38.1337V50.7064C38.1337 51.0098 37.9806 51.2934 37.7243 51.4649C36.798 52.0844 36.2449 53.1091 36.2449 54.2054V55.298H33.3194C32.4713 52.306 31.0644 49.5365 29.13 47.0528L25.5457 42.4507C24.9982 41.7477 24.423 41.0672 23.9269 40.4845C20.4076 36.3519 18.4834 31.1106 18.5089 25.7262C18.5379 19.5936 21.0402 13.8315 25.5549 9.50124C30.0725 5.16804 36.0228 2.8312 42.3108 2.9052C47.7017 2.97343 52.7498 4.77422 56.9093 8.11332C57.4343 8.535 58.2099 8.46102 58.6418 7.94835C59.0737 7.43585 58.9979 6.67864 58.4729 6.25711C53.9422 2.62028 48.2137 0.576365 42.3425 0.502373C35.3974 0.410283 28.8189 3.00145 23.8294 7.78709C18.843 12.5698 16.0792 18.9368 16.0472 25.7151C16.019 31.6635 18.145 37.4543 22.0337 42.0206C22.5133 42.5839 23.0684 43.2406 23.586 43.9051L27.1702 48.5071C28.7862 50.5821 29.992 52.879 30.7689 55.351C29.825 55.5604 29.1178 56.3845 29.1178 57.3684V62.0213C29.1178 63.1191 29.9985 64.0178 31.1062 64.0853V65.6638C31.1062 66.3275 31.6573 66.8653 32.337 66.8653C33.0168 66.8653 33.5678 66.3275 33.5678 65.6638V64.0918H50.4309V70.9878L47.8365 74.2652H36.162L33.5642 70.9837C33.5166 70.3624 32.9854 69.8726 32.3369 69.8726C31.6572 69.8726 31.1061 70.4104 31.1061 71.0741C31.1061 71.547 31.2692 72.0139 31.5658 72.3887L34.2922 75.8329C34.634 76.2645 35.1381 76.5494 35.6842 76.6368C35.8505 79.8971 38.6194 82.5 41.9998 82.5C45.3802 82.5 48.1491 79.8973 48.3149 76.6368C48.861 76.5494 49.3653 76.2645 49.7071 75.8327L52.4337 72.3883C52.7298 72.0137 52.893 71.547 52.893 71.074V64.085C54.0009 64.0178 54.8816 63.1191 54.8816 62.0211V57.3683C54.8816 56.3844 54.1742 55.5601 53.2303 55.3508C54.0074 52.879 55.2133 50.5819 56.8291 48.5069L60.3484 43.9884C60.8811 43.3041 61.4566 42.6208 62.0005 41.9794C65.8388 37.4531 67.9525 31.7193 67.9525 25.8345C67.9525 20.2392 66.1212 14.9347 62.6561 10.495ZM45.8658 44.3251C45.8658 43.4297 46.6119 42.7013 47.5292 42.7013C48.4465 42.7013 49.1926 43.4297 49.1926 44.3253C49.1926 45.2206 48.4465 45.9491 47.5292 45.9491H45.8658V44.3251ZM41.9998 80.097C39.9882 80.097 38.3309 78.5877 38.1538 76.6682H45.8456C45.6688 78.5877 44.0114 80.097 41.9998 80.097ZM38.7067 54.2054C38.7067 53.9022 38.8597 53.6187 39.1161 53.4471C40.0423 52.8273 40.5954 51.8027 40.5954 50.7064V48.3519H43.4038V50.7064C43.4038 51.8027 43.9569 52.8272 44.8834 53.4471C45.1397 53.6187 45.2926 53.9022 45.2926 54.2054V55.298H38.7065V54.2054H38.7067ZM36.4705 45.9491C35.5532 45.9491 34.807 45.2207 34.807 44.3251C34.807 43.4297 35.5532 42.7013 36.4705 42.7013C37.3877 42.7013 38.1338 43.4297 38.1338 44.3251V45.9491H36.4705ZM52.4198 61.6886H31.5798V57.7011H52.4198V61.6886Z" fill="white"/>
</g>
<defs>
<clipPath id="clip0_51_739">
<rect width="84" height="82" fill="white" transform="translate(0 0.5)"/>
</clipPath>
</defs>
</svg>
