<svg width="64" height="69" viewBox="0 0 64 69" fill="none" xmlns="http://www.w3.org/2000/svg">
<path fill-rule="evenodd" clip-rule="evenodd" d="M39.4898 35.8284C36.9399 37.2568 35.3687 39.8968 35.3687 42.7547C35.3687 49.3023 35.3687 61.1477 35.3687 67.0005C35.3687 67.7153 35.7602 68.375 36.3989 68.7299C37.0377 69.0898 37.8207 69.0898 38.4595 68.7299C43.6418 65.826 54.0837 59.9782 59.8791 56.7295C62.429 55.3 64.0002 52.661 64.0002 49.8071C64.0002 43.2546 64.0002 31.4111 64.0002 25.5603C64.0002 24.8456 63.6087 24.1858 62.9699 23.8284C62.3363 23.4716 61.5482 23.4716 60.9094 23.8284C55.7322 26.7313 45.2903 32.5796 39.4898 35.8284Z" fill="#287EE7"/>
<path fill-rule="evenodd" clip-rule="evenodd" d="M1.04831e-07 49.7947C-3.42959e-06 52.654 1.57012 55.2933 4.11889 56.723C9.91912 59.9721 20.3639 65.8256 25.5428 68.7299C26.1811 69.0898 26.9636 69.0898 27.6019 68.7299C28.2403 68.375 28.6315 67.7152 28.6315 67.0003C28.6316 61.1519 28.6316 49.3149 28.6316 42.7666C28.6316 39.9083 27.0614 37.268 24.5132 35.8394C18.7135 32.5877 8.26976 26.7332 3.08883 23.8285C2.4515 23.4716 1.66644 23.4716 1.02963 23.8285C0.392308 24.1859 3.09451e-05 24.8457 3.00621e-05 25.56C2.28314e-05 31.4095 8.19939e-06 43.2464 1.04831e-07 49.7947Z" fill="#57A3FF"/>
<path fill-rule="evenodd" clip-rule="evenodd" d="M6.0974 14.1151C5.45128 14.501 5.05274 15.2135 5.05273 15.9848C5.05273 16.7561 5.45127 17.4691 6.0974 17.8545C11.3531 20.9904 21.9455 27.3087 27.8269 30.8187C30.4125 32.3613 33.5987 32.3613 36.1842 30.8187C42.0657 27.3098 52.6534 20.9943 57.9028 17.86C58.5505 17.4746 58.9475 16.7615 58.9475 15.9903C58.9475 15.219 58.5505 14.506 57.9028 14.1206C52.6481 10.9852 42.0605 4.66638 36.1738 1.15695C33.5883 -0.385647 30.4021 -0.38565 27.8165 1.15694C21.935 4.66528 11.3515 10.9808 6.0974 14.1151Z" fill="#9FCDFF"/>
</svg>
