<svg width="97" height="82" viewBox="0 0 97 82" fill="none" xmlns="http://www.w3.org/2000/svg">
<path d="M77.138 18.1125L63.388 4.36249C63.1497 4.13225 62.8319 4.00247 62.5005 4H31.2505C30.2569 4.00297 29.3048 4.39901 28.6021 5.10163C27.8996 5.80425 27.5035 6.75635 27.5005 7.75V15.3125C20.7675 15.6281 14.4147 18.5249 9.76128 23.4015C5.10795 28.278 2.51172 34.7595 2.51172 41.5C2.51172 48.2405 5.10795 54.722 9.76128 59.5985C14.4147 64.4751 20.7675 67.3719 27.5005 67.6875V75.25C27.5035 76.2436 27.8996 77.1957 28.6021 77.8984C29.3048 78.6009 30.2569 78.9971 31.2505 79H73.7505C74.7441 78.9971 75.6963 78.6009 76.3989 77.8984C77.1015 77.1957 77.4976 76.2436 77.5005 75.25V19C77.498 18.6687 77.3683 18.3508 77.138 18.1125ZM63.7505 8.26249L73.238 17.75H65.0005C64.6691 17.75 64.3511 17.6183 64.1167 17.3839C63.8823 17.1495 63.7505 16.8315 63.7505 16.5V8.26249ZM5.00053 41.5C5.00867 35.4204 7.3452 29.5748 11.5299 25.1645C15.7147 20.7543 21.4297 18.1144 27.5005 17.7875V40.9875L11.1255 57.3625C7.18367 53.0199 5.00013 47.3649 5.00053 41.5ZM12.888 59.1251L29.2631 42.75H52.4631C52.2353 47.2291 50.7416 51.5516 48.1555 55.2156C45.5692 58.8796 41.9967 61.7348 37.8527 63.4495C33.7085 65.1641 29.1631 65.668 24.744 64.9025C20.3251 64.1371 16.2139 62.1336 12.888 59.1251ZM75.0005 75.25C75.0005 75.5815 74.8688 75.8995 74.6344 76.1339C74.4 76.3683 74.082 76.5 73.7505 76.5H31.2505C30.9191 76.5 30.6011 76.3683 30.3667 76.1339C30.1323 75.8995 30.0005 75.5815 30.0005 75.25V67.6875C36.7313 67.3624 43.0796 64.4629 47.7328 59.5888C52.3859 54.7145 54.9879 48.2385 55.0005 41.5C55.0005 41.1685 54.8688 40.8505 54.6344 40.6161C54.4 40.3817 54.082 40.25 53.7505 40.25H30.0005V7.75C30.0005 7.41848 30.1323 7.10053 30.3667 6.86612C30.6011 6.63169 30.9191 6.5 31.2505 6.5H61.2505V16.5C61.2535 17.4936 61.6495 18.4457 62.3521 19.1484C63.0548 19.8509 64.0069 20.2471 65.0005 20.25H75.0005V75.25Z" fill="white"/>
<path d="M33.75 10.25C33.4185 10.25 33.1005 10.3817 32.8661 10.6161C32.6317 10.8505 32.5 11.1685 32.5 11.5V36.5C32.5 36.8315 32.6317 37.1495 32.8661 37.3839C33.1005 37.6183 33.4185 37.75 33.75 37.75H58.75C59.0815 37.75 59.3995 37.6183 59.6339 37.3839C59.8683 37.1495 60 36.8315 60 36.5C59.9924 29.5404 57.2243 22.868 52.3032 17.9468C47.382 13.0257 40.7096 10.2576 33.75 10.25ZM35 35.25V12.7875C40.8553 13.1019 46.3879 15.5695 50.5343 19.7157C54.6805 23.8621 57.1481 29.3947 57.4625 35.25H35Z" fill="white"/>
<path d="M61.25 51.5C59.0249 51.5 56.8498 52.1599 54.9998 53.396C53.1497 54.6321 51.7078 56.3892 50.8564 58.4448C50.0049 60.5005 49.7821 62.7625 50.2161 64.9448C50.6502 67.1271 51.7217 69.1316 53.295 70.7049C54.8684 72.2783 56.8729 73.3497 59.0552 73.7839C61.2374 74.2179 63.4996 73.9951 65.5552 73.1436C67.6109 72.2921 69.3679 70.8503 70.604 69.0001C71.8403 67.1501 72.5 64.9751 72.5 62.75C72.4953 59.7677 71.3087 56.9089 69.1999 54.8001C67.0911 52.6913 64.2323 51.5047 61.25 51.5ZM61.25 71.5C59.5194 71.5 57.8277 70.9868 56.3888 70.0253C54.9498 69.0639 53.8282 67.6973 53.166 66.0985C52.5037 64.4996 52.3305 62.7403 52.6681 61.0429C53.0057 59.3456 53.839 57.7865 55.0628 56.5628C56.2865 55.3391 57.8456 54.5057 59.5429 54.1681C61.2402 53.8305 62.9996 54.0037 64.5985 54.666C66.1973 55.3283 67.5639 56.4499 68.5253 57.8888C69.4868 59.3277 70 61.0195 70 62.75C69.9973 65.0699 69.0747 67.2939 67.4343 68.9343C65.7938 70.5747 63.5698 71.4973 61.25 71.5Z" fill="white"/>
<path d="M58.7496 64.7325L55.8833 61.8662L54.1158 63.6337L57.8658 67.3837C58.1002 67.6181 58.4181 67.7497 58.7496 67.7497C59.081 67.7497 59.3989 67.6181 59.6333 67.3837L67.1333 59.8837L65.3658 58.1162L58.7496 64.7325Z" fill="white"/>
<path d="M62.5 25.25H72.5V27.75H62.5V25.25Z" fill="white"/>
<path d="M62.5 32.75H72.5V35.25H62.5V32.75Z" fill="white"/>
<path d="M62.5 40.25H72.5V42.75H62.5V40.25Z" fill="white"/>
</svg>
