<svg width="777" height="1004" viewBox="0 0 777 1004" fill="none" xmlns="http://www.w3.org/2000/svg">
<path d="M126.5 398V410.5C126.5 427.069 139.931 440.5 156.5 440.5H444C460.569 440.5 474 453.931 474 470.5V522C474 538.569 487.431 552 504 552H702.5C719.069 552 732.5 565.431 732.5 582V600" stroke="#EBF2FC" stroke-width="4"/>
<path d="M732.5 834.5V861.5C732.5 878.069 719.069 891.5 702.5 891.5H285C268.431 891.5 255 904.931 255 921.5V972C255 988.569 241.569 1002 225 1002H0" stroke="#EBF2FC" stroke-width="4"/>
<path d="M121 100V79.7608C121 63.1922 134.431 49.7608 151 49.7608H407.244C420.294 49.7608 430.874 39.1811 430.874 26.1304V26.1304C430.874 13.0797 441.454 2.5 454.504 2.5H745C761.569 2.5 775 15.9315 775 32.5V100" stroke="#EBF2FC" stroke-width="4"/>
</svg>
