<svg width="80" height="77" viewBox="0 0 80 77" fill="none" xmlns="http://www.w3.org/2000/svg">
<g clip-path="url(#clip0_51_744)">
<path d="M0 46.0999C0 47.499 1.19391 48.6333 2.66667 48.6333H32C32.7364 48.6333 33.3333 48.0662 33.3333 47.3666C33.3333 46.6671 32.7364 46.0999 32 46.0999H2.66667V16.9666C2.66667 16.2671 2.06971 15.7 1.33333 15.7C0.596954 15.7 0 16.2671 0 16.9666V46.0999Z" fill="white"/>
<path d="M0 10.6333C0 11.3329 0.596954 11.9 1.33333 11.9C2.06971 11.9 2.66667 11.3329 2.66667 10.6333V3.03333H69.3333V19.5C69.3333 20.1996 69.9303 20.7667 70.6667 20.7667C71.403 20.7667 72 20.1996 72 19.5V3.03333C72 1.63421 70.8061 0.5 69.3333 0.5H2.66667C1.19391 0.5 0 1.63421 0 3.03333V10.6333Z" fill="white"/>
<path d="M7.99935 9.36658C8.73573 9.36658 9.33268 8.79948 9.33268 8.09992C9.33268 7.40036 8.73573 6.83325 7.99935 6.83325C7.26297 6.83325 6.66602 7.40036 6.66602 8.09992C6.66602 8.79948 7.26297 9.36658 7.99935 9.36658Z" fill="white"/>
<path d="M13.3333 9.36658C14.0697 9.36658 14.6667 8.79948 14.6667 8.09992C14.6667 7.40036 14.0697 6.83325 13.3333 6.83325C12.597 6.83325 12 7.40036 12 8.09992C12 8.79948 12.597 9.36658 13.3333 9.36658Z" fill="white"/>
<path d="M18.6663 9.36658C19.4027 9.36658 19.9997 8.79948 19.9997 8.09992C19.9997 7.40036 19.4027 6.83325 18.6663 6.83325C17.93 6.83325 17.333 7.40036 17.333 8.09992C17.333 8.79948 17.93 9.36658 18.6663 9.36658Z" fill="white"/>
<path d="M7.05737 31.7954C7.57804 32.2899 8.42204 32.2899 8.94271 31.7954L17.3334 23.8243L21.724 27.9954C22.2447 28.4899 23.0887 28.4899 23.6094 27.9954L33.3334 18.7576L37.724 22.9287C38.2447 23.4232 39.0887 23.4232 39.6094 22.9287L50.6667 12.4243L55.0574 16.5954C55.578 17.0899 56.422 17.0899 56.9427 16.5954L64.9427 8.99542C65.2893 8.6774 65.4283 8.20645 65.3063 7.76358C65.1843 7.32072 64.8202 6.97486 64.354 6.85894C63.8879 6.74302 63.3921 6.87508 63.0574 7.20436L56 13.9088L51.6094 9.73769C51.0887 9.24321 50.2447 9.24321 49.724 9.73769L38.6667 20.2421L34.276 16.071C33.7554 15.5765 32.9114 15.5765 32.3907 16.071L22.6667 25.3088L18.276 21.1377C17.7554 20.6432 16.9114 20.6432 16.3907 21.1377L7.05737 30.0043C6.53686 30.499 6.53686 31.3008 7.05737 31.7954Z" fill="white"/>
<path d="M57.3335 19.5C49.384 19.4929 42.0128 23.4463 37.9122 29.9161C33.8117 36.3859 33.5824 44.4245 37.3082 51.0957L32.3242 55.8318C31.8024 56.3264 31.8016 57.1291 32.3222 57.6248C32.8428 58.1204 33.6878 58.1212 34.2095 57.6267L38.7428 53.32C40.2809 55.4142 42.1961 57.234 44.4002 58.6957L29.4975 72.8558C27.9327 74.3291 25.4113 74.3319 23.8428 72.8621C22.2779 71.3768 22.2743 68.9683 23.8348 67.4788L29.5015 62.1081C30.0076 61.6118 30.0016 60.8217 29.488 60.3324C28.9744 59.8431 28.1427 59.8351 27.6188 60.3145L21.9442 65.6928C19.3483 68.171 19.3525 72.1773 21.9535 74.6507C24.5632 77.1109 28.7732 77.1109 31.3828 74.6507L46.7415 60.0574C55.075 64.2555 65.2742 63.1119 72.3499 57.186C79.4255 51.2601 81.8986 41.7907 78.5592 33.41C75.2198 25.0293 66.7662 19.4893 57.3335 19.5ZM57.3335 60.0333C46.2878 60.0333 37.3335 51.5267 37.3335 41.0333C37.3335 30.5399 46.2878 22.0333 57.3335 22.0333C68.3792 22.0333 77.3335 30.5399 77.3335 41.0333C77.321 51.5218 68.374 60.0215 57.3335 60.0333Z" fill="white"/>
<path d="M52.9727 26.4121C46.0966 28.277 41.3499 34.24 41.334 41.0332C41.334 41.7328 41.9309 42.2999 42.6673 42.2999C43.4037 42.2999 44.0007 41.7328 44.0007 41.0332C44.013 35.3738 47.967 30.4056 53.6953 28.8517C54.1541 28.7291 54.5091 28.3833 54.6266 27.9445C54.7442 27.5058 54.6065 27.0408 54.2653 26.7247C53.9241 26.4086 53.4314 26.2895 52.9727 26.4121Z" fill="white"/>
</g>
<defs>
<clipPath id="clip0_51_744">
<rect width="80" height="76" fill="white" transform="translate(0 0.5)"/>
</clipPath>
</defs>
</svg>
