<svg width="23" height="25" viewBox="0 0 23 25" fill="none" xmlns="http://www.w3.org/2000/svg">
<path fill-rule="evenodd" clip-rule="evenodd" d="M14.1915 12.9814C13.2751 13.4989 12.7105 14.4554 12.7105 15.4909C12.7105 17.8632 12.7105 22.155 12.7104 24.2756C12.7104 24.5346 12.8511 24.7736 13.0807 24.9022C13.3103 25.0326 13.5917 25.0326 13.8212 24.9022C15.6836 23.8501 19.4362 21.7313 21.5189 20.5542C22.4353 20.0363 22.9999 19.0801 22.9999 18.0461C22.9999 15.672 22.9999 11.3809 22.9999 9.26103C22.9999 9.00208 22.8592 8.76303 22.6297 8.63355C22.402 8.50425 22.1187 8.50425 21.8892 8.63355C20.0286 9.68532 16.276 11.8043 14.1915 12.9814Z" fill="#6CA7EF"/>
<path fill-rule="evenodd" clip-rule="evenodd" d="M4.48182e-09 18.0416C-1.26932e-06 19.0776 0.564261 20.0339 1.48022 20.5519C3.56468 21.7291 7.31827 23.8499 9.17943 24.9022C9.40884 25.0326 9.69004 25.0326 9.91945 24.9022C10.1489 24.7736 10.2895 24.5345 10.2895 24.2756C10.2895 22.1565 10.2895 17.8678 10.2895 15.4952C10.2895 14.4596 9.72521 13.503 8.80943 12.9853C6.72516 11.8072 2.97194 9.68601 1.11005 8.63356C0.88101 8.50425 0.598876 8.50425 0.370023 8.63356C0.140986 8.76306 1.11193e-05 9.00212 1.0801e-05 9.26093C8.1951e-06 11.3803 2.92175e-06 15.6691 4.48182e-09 18.0416Z" fill="#A5CBF9"/>
<path fill-rule="evenodd" clip-rule="evenodd" d="M2.19135 5.11418C1.95914 5.254 1.81592 5.51215 1.81592 5.79161C1.81592 6.07106 1.95914 6.32939 2.19134 6.46902C4.08011 7.60523 7.88675 9.89445 10.0004 11.1662C10.9296 11.7251 12.0746 11.7251 13.0038 11.1662C15.1175 9.89485 18.9224 7.60661 20.8089 6.471C21.0417 6.33137 21.1843 6.07302 21.1843 5.79357C21.1843 5.51411 21.0417 5.25578 20.8089 5.11615C18.9205 3.98014 15.1156 1.69072 13.0001 0.419185C12.0709 -0.139727 10.9258 -0.139728 9.99665 0.419182C7.883 1.69032 4.07955 3.97856 2.19135 5.11418Z" fill="#C2DFFF"/>
</svg>
